<svg width="16" height="13" viewBox="0 0 16 13" fill="none" xmlns="http://www.w3.org/2000/svg">
<path d="M14.8423 0.652344C15.3345 0.625 15.772 1.00781 15.7447 1.47266V10.7148C15.7447 11.1523 15.3892 11.5352 14.9244 11.5625C13.5845 11.6172 10.8501 11.8906 8.96343 12.8477C8.66265 12.9844 8.30718 12.793 8.30718 12.4648V2.51172C8.30718 2.375 8.38921 2.23828 8.52593 2.15625C10.358 1.03516 13.3384 0.734375 14.8423 0.652344ZM7.24077 2.15625C7.37749 2.23828 7.45952 2.375 7.45952 2.51172V12.4648C7.45952 12.793 7.10405 12.9844 6.80327 12.8477C4.91655 11.8906 2.18218 11.6172 0.842334 11.5625C0.37749 11.5352 0.0220213 11.1523 0.0220213 10.7148V1.47266C0.0220213 1.00781 0.432178 0.625 0.924365 0.652344C2.42827 0.734375 5.40874 1.03516 7.24077 2.15625Z" fill="#422AD5"/>
</svg>
